<svg height="90pt" viewBox="733 450 64.901 90" width="64.901pt" xmlns="http://www.w3.org/2000/svg" isolation="isolate"><path d="m755.532 457.988h19.838c.036-.129.055-.264.055-.4v-3.195c0-.369-.139-.729-.399-.988-.27-.26-.619-.41-.989-.41h-17.173c-.37 0-.719.15-.989.41-.259.259-.399.619-.399.988v3.195c0 .136.019.271.056.4zm-18.368 2.995h56.574c.309 0 .609.12.828.34.22.219.34.519.34.829v5.361c0 .31-.12.609-.34.819-.219.22-.519.35-.828.35h-56.574c-.31 0-.609-.13-.829-.35-.22-.21-.34-.509-.34-.819v-5.361c0-.31.12-.61.34-.829.22-.22.519-.34.829-.34zm29.794 64.043c0 .399-.159.779-.439 1.068-.28.28-.659.429-1.058.429-.4 0-.779-.149-1.059-.429-.279-.289-.439-.669-.439-1.068v-41.018c0-.399.16-.779.439-1.058.28-.28.659-.44 1.059-.44.399 0 .778.16 1.058.44.28.279.439.659.439 1.058zm-13.06-41.068 2.147 40.968c.02.389-.11.779-.38 1.078-.269.3-.639.47-1.038.489-.389.02-.779-.109-1.078-.379-.29-.269-.47-.639-.49-1.038l-2.146-40.958c-.02-.399.11-.789.379-1.088.27-.29.639-.47 1.039-.49.389-.02.778.12 1.078.38.289.269.469.639.489 1.038zm-12.783-12.285 3.867 63.546c0 .311.11.622.289.849.19.215.44.347.709.347h38.941c.27 0 .519-.132.709-.347.18-.227.289-.538.289-.849l3.867-63.546zm11.378-13.685h-15.334c-2.295 0-4.159 1.864-4.159 4.159v5.367c0 2.295 1.864 4.159 4.159 4.159h.96l3.867 63.544c0 2.64 1.79 4.783 3.994 4.783h38.941c2.204 0 3.994-2.143 3.994-4.783l3.867-63.544h.96c2.295 0 4.159-1.864 4.159-4.159v-5.367c0-2.295-1.864-4.159-4.159-4.159h-15.334c.012-.131.018-.263.018-.397v-3.2c0-2.423-1.968-4.391-4.391-4.391h-17.168c-2.424 0-4.391 1.968-4.391 4.391v3.2c0 .134.006.266.017.397zm27.515 26.13-2.146 40.958c-.02.399-.2.769-.49 1.038-.299.27-.689.399-1.078.379-.399-.019-.769-.189-1.038-.489-.27-.299-.4-.689-.38-1.078l2.147-40.968c.02-.399.2-.769.489-1.038.3-.26.689-.4 1.079-.38.399.02.768.2 1.038.49.27.299.399.689.379 1.088z" fill-rule="evenodd"/></svg>